<?xml version="1.0" encoding="utf-8"?>
<!-- Generator: Adobe Illustrator 18.1.0, SVG Export Plug-In . SVG Version: 6.00 Build 0)  -->
<svg version="1.1" id="Layer_1" xmlns="http://www.w3.org/2000/svg" xmlns:xlink="http://www.w3.org/1999/xlink" x="0px" y="0px"
	 viewBox="0 0 350 850" enable-background="new 0 0 350 850" xml:space="preserve">
<g>
	<circle cx="170.1" cy="80.7" r="80.7"/>
	<path d="M289,209.3c-18.6-15.6-41.3-25.4-65.4-28.8l-49,0.3l-48.9-0.3c-24,3.3-46.8,13.1-65.4,28.8C32.9,232.5-0.3,271.7-0.3,326.2
		c0,93,53.4,138.4,53.4,138.4s21.4,21.7,41.8,1.4c13-13,10.5-27.4-0.5-45.4c-4.2-7-21-27.2-26.6-40.6c-13.3-31.6-14.9-75.5,6.7-95.3
		c0,0-4,64.3-4,85.4c7.3,13.8,16.2,27.9,33.1,50.8c16.9,22.9,10.5,61.3-33.1,59.8l4,322.4h0.4c0,1,0,0.8,0,1.1
		c0,25.2,20.4,45.8,45.6,45.8c25.2,0,45.6-20.5,45.6-45.7c0-0.3,0-0.1,0-1.1h0V522.6c0-4.8,3.8-8.7,8.6-8.7c4.7,0,8.4,3.9,8.4,8.7
		V803h0.4c0,1,0,0.8,0,1.2c0,25.2,20.4,45.7,45.6,45.7c25.2,0,45.6-20.6,45.6-45.8c0-0.3,0-0.1,0-1.1h0.4l4-322.4
		c-43.6,1.5-50-36.9-33.1-59.8c16.9-22.9,25.8-37,33.1-50.8c0-21.1-4-85.4-4-85.4c21.6,19.8,20,63.7,6.7,95.3
		c-5.6,13.4-22.4,33.6-26.6,40.6c-11,18.1-13.4,32.5-0.5,45.4c20.3,20.3,41.8-1.4,41.8-1.4s53.4-45.3,53.4-138.4
		C349.7,271.7,316.5,232.5,289,209.3z"/>
</g>
</svg>
